<?xml version="1.0" encoding="UTF-8" standalone="no"?>
<!-- Created with Inkscape (http://www.inkscape.org/) -->

<svg
   xmlns:dc="http://purl.org/dc/elements/1.1/"
   xmlns:cc="http://creativecommons.org/ns#"
   xmlns:rdf="http://www.w3.org/1999/02/22-rdf-syntax-ns#"
   xmlns:svg="http://www.w3.org/2000/svg"
   xmlns="http://www.w3.org/2000/svg"
   xmlns:sodipodi="http://sodipodi.sourceforge.net/DTD/sodipodi-0.dtd"
   xmlns:inkscape="http://www.inkscape.org/namespaces/inkscape"
   id="svg2985"
   version="1.1"
   inkscape:version="0.48.4 r9939"
   width="128"
   height="128"
   sodipodi:docname="1375408290_11-linkedin.png"
   inkscape:export-filename="C:\Users\Daniel Joseph\Documents\GitHub\geo\img\full-size-images\phone_grey.png"
   inkscape:export-xdpi="90"
   inkscape:export-ydpi="90">
  <metadata
     id="metadata2991">
    <rdf:RDF>
      <cc:Work
         rdf:about="">
        <dc:format>image/svg+xml</dc:format>
        <dc:type
           rdf:resource="http://purl.org/dc/dcmitype/StillImage" />
        <dc:title></dc:title>
      </cc:Work>
    </rdf:RDF>
  </metadata>
  <defs
     id="defs2989" />
  <sodipodi:namedview
     pagecolor="#ffffff"
     bordercolor="#666666"
     borderopacity="1"
     objecttolerance="10"
     gridtolerance="10"
     guidetolerance="10"
     inkscape:pageopacity="0"
     inkscape:pageshadow="2"
     inkscape:window-width="1360"
     inkscape:window-height="716"
     id="namedview2987"
     showgrid="false"
     inkscape:zoom="2.6074563"
     inkscape:cx="9.8290465"
     inkscape:cy="69.432339"
     inkscape:window-x="-8"
     inkscape:window-y="-8"
     inkscape:window-maximized="1"
     inkscape:current-layer="g2995" />
  <g
     id="g2995">
    <rect
       style="fill:#cccccc;fill-opacity:1"
       id="rect3015"
       width="109.02496"
       height="114.80367"
       x="11.752492"
       y="6.2611437"
       ry="6.5917797" />
    <path
       style="fill:#d9d9d9"
       d="M 6.3155561,126.7611 C 0.27610273,124.10698 0.11617406,122.29941 0.5038046,61.074435 L 0.85466642,5.6569981 4.0384685,2.9192018 l 3.183801,-2.73779619 56.1625185,0 c 59.206462,0 61.376992,0.17686894 63.288092,5.15715159 0.38769,1.0102841 0.70487,27.7483038 0.70487,59.4178208 l 0,57.580942 -2.92746,2.75096 -2.92746,2.75096 -55.79514,0.25571 C 19.945782,128.30478 9.2834357,128.06526 6.3155561,126.7611 z M 93.01405,116.3377 c 2.673311,-1.02093 4.860565,-2.22424 4.860565,-2.67398 0,-0.44977 -3.156329,-3.06119 -7.014068,-5.80322 -3.857737,-2.742 -9.522622,-7.37654 -12.588634,-10.298966 -3.228826,-3.077615 -6.247038,-5.05545 -7.172673,-4.70025 C 67.891753,94.092111 64.331429,92.05642 61.387369,87.308312 54.73233,76.575233 43.407276,53.718086 43.407276,51.019424 c 0,-1.58017 0.910779,-4.090821 2.023954,-5.579223 1.773902,-2.371843 1.97075,-4.703944 1.593289,-18.876177 l -0.430668,-16.169993 -2.764468,0 c -6.425729,0 -14.919125,5.425913 -18.118336,11.574697 -3.632283,6.981138 -1.431643,34.820747 3.973928,50.272919 4.792164,13.698712 24.144319,37.933283 34.714921,43.473213 5.868211,3.07546 21.311819,3.41164 28.614154,0.62284 z m 11.63113,-12.67858 c -0.0345,-3.822202 -0.70406,-4.693896 -7.659477,-9.972691 -10.599418,-8.044396 -12.160416,-8.774915 -15.281079,-7.151287 -1.404235,0.730602 -2.739029,1.487624 -2.966205,1.682269 -1.981505,1.697778 22.690831,21.471969 25.093551,20.111779 0.4681,-0.26498 0.83402,-2.36651 0.81321,-4.67007 z M 57.598166,39.689183 60.747751,37.211718 60.021816,25.347232 c -0.574942,-9.3967 -1.139213,-12.178204 -2.712873,-13.372755 -2.898602,-2.2003068 -5.834007,-1.9790452 -5.377559,0.405344 0.209078,1.092183 0.419212,8.241021 0.466962,15.886307 0.04776,7.645286 0.528587,13.900518 1.068526,13.900518 0.53994,0 2.399022,-1.114858 4.131294,-2.477463 z"
       id="path3009"
       inkscape:connector-curvature="0" />
    <path
       style="fill:#adadad"
       d="M 3.7448398,124.6215 C 1.2292726,122.04382 1.4220344,121.99204 1.4220344,64.59736 1.4220344,33.015303 1.7392291,6.3488413 2.1269114,5.3385572 4.0366326,0.36190347 6.237095,0.18140561 64.998201,0.18140561 l 55.745709,0 3.31693,3.31692139 3.31691,3.3169213 0,57.4430447 0,57.443067 -2.78527,2.78524 -2.78525,2.78526 -57.725322,0 -57.7975615,-0.0481 z m 90.1545432,-8.69543 5.29081,-2.26792 -9.856679,-7.43408 C 83.912342,102.13533 78.238537,97.318351 76.725061,95.519687 74.475806,92.846599 73.306381,92.34642 70.321327,92.780725 66.158451,93.386399 65.210779,92.859861 61.939061,88.123464 56.997405,80.969535 43.407276,53.758935 43.407276,51.018526 c 0,-1.579676 1.021262,-4.170464 2.269472,-5.757306 2.504276,-3.183671 2.694223,-6.148351 1.525089,-23.803509 -0.708067,-10.692586 -0.823277,-11.06368 -3.434785,-11.06368 -6.365631,0 -14.870299,5.451866 -18.056005,11.574697 -3.632283,6.981138 -1.431643,34.820747 3.973928,50.272919 4.792164,13.698712 24.144319,37.933283 34.714921,43.473213 6.361643,3.33407 21.953704,3.4457 29.499487,0.21121 z m 10.745797,-12.26695 c -0.0346,-3.822202 -0.70406,-4.693896 -7.659477,-9.972691 -10.643892,-8.078149 -11.983035,-8.690541 -15.499916,-7.088144 -3.706713,1.688891 -3.658428,3.214985 0.218837,6.916494 6.230355,5.947937 20.681976,15.751921 22.009666,14.931351 0.5328,-0.32929 0.9517,-2.48345 0.93089,-4.78701 z M 57.598166,39.689183 60.747751,37.211718 60.021816,25.347232 C 59.265961,12.993768 58.156237,10.517716 53.336217,10.43012 51.74993,10.4013 51.351611,11.364244 51.3563,15.21666 c 0.01158,9.520776 1.487233,26.949986 2.281718,26.949986 0.445809,0 2.227876,-1.114858 3.960148,-2.477463 z"
       id="path3007"
       inkscape:connector-curvature="0"
       sodipodi:nodetypes="sssscccccccccsscssssssssssssssssssscsssss" />
    <path
       style="fill:#929292"
       d="m 4.4119045,124.92004 -2.9898701,-2.35183 0,-58.158764 0,-58.1587584 2.9282596,-2.7509569 2.9282597,-2.75095709 57.3110113,0 57.311015,0 2.73858,3.18380219 2.73859,3.1838008 0,57.2924834 0,57.2925 -2.78527,2.78524 -2.78525,2.78526 -57.202725,0 c -56.1522495,0 -57.2576379,-0.0431 -60.1926005,-2.35182 z m 89.5841385,-9.03539 c 2.96311,-1.27015 4.920311,-2.7116 4.349337,-3.20321 -0.570973,-0.49165 -4.937481,-3.77776 -9.703348,-7.30251 -4.765869,-3.52474 -9.947066,-7.932028 -11.513771,-9.79395 -2.385485,-2.834986 -3.46714,-3.2949 -6.653723,-2.829116 -4.319917,0.63144 -5.246967,0.128309 -8.535477,-4.6324 -4.941656,-7.153929 -18.531785,-34.364529 -18.531785,-37.104938 0,-1.579676 1.021262,-4.170464 2.269472,-5.757306 2.497111,-3.174563 2.831164,-8.753831 1.527116,-25.505613 -0.693119,-8.903812 -0.861028,-9.361576 -3.433854,-9.361576 -6.368483,0 -14.872613,5.45063 -18.058963,11.574697 -3.632283,6.981138 -1.431643,34.820747 3.973928,50.272919 4.792164,13.698712 24.144319,37.933283 34.714921,43.473213 6.405283,3.35696 21.952722,3.44613 29.596147,0.16979 z m 10.402767,-11.96307 c 0.27193,-4.274605 -0.0199,-4.679681 -7.37579,-10.235151 C 85.820053,85.225398 84.950192,84.870284 80.749118,87.042743 l -3.529155,1.825 2.667856,2.874476 c 2.732095,2.943687 13.896995,11.901461 19.069865,15.300051 4.022056,2.6425 5.114346,2.01602 5.441126,-3.12069 z M 57.598166,39.689183 60.747751,37.211718 60.021816,25.347232 C 59.265961,12.993768 58.156237,10.517716 53.336217,10.43012 c -1.712668,-0.03113 -1.984676,1.095405 -1.97772,8.190749 0.01055,10.793654 1.241324,23.545777 2.272464,23.545777 0.44969,0 2.234933,-1.114858 3.967205,-2.477463 z"
       id="path3005"
       inkscape:connector-curvature="0" />
    <path
       style="fill:#757575"
       d="m 4.2072956,124.4866 -2.7852612,-2.78524 0,-57.725344 0,-57.7253284 2.9282596,-2.7509569 2.9282597,-2.75095709 57.3110113,0 57.311015,0 2.76852,3.21858859 2.76851,3.2185885 -0.31361,57.8743243 -0.31361,57.874325 -2.67886,2.16863 c -2.55821,2.07095 -5.25689,2.16863 -59.908925,2.16863 l -57.2300469,0 -2.7852625,-2.78526 z m 90.0691674,-8.69566 5.782377,-2.40306 -9.653567,-6.86672 C 85.095807,102.74444 79.281057,97.979435 77.4836,95.932246 74.719591,92.784216 73.633513,92.295071 70.442434,92.761073 66.155432,93.387116 65.224136,92.879201 61.939061,88.123464 56.997405,80.969535 43.407276,53.758935 43.407276,51.018526 c 0,-1.579676 1.021262,-4.170464 2.269472,-5.757306 1.883009,-2.393858 2.267793,-4.593776 2.25961,-12.918811 -0.0053,-5.518505 -0.331868,-12.714461 -0.725427,-15.991011 -0.63991,-5.327516 -1.002636,-5.957367 -3.430792,-5.957367 -6.378246,0 -14.880541,5.446399 -18.069092,11.574697 -3.632283,6.981138 -1.431643,34.820747 3.973928,50.272919 4.792164,13.698712 24.144319,37.933283 34.714921,43.473213 6.488828,3.40074 21.782838,3.43966 29.876567,0.076 z m 10.351327,-12.34853 c -0.0184,-3.561785 -0.80689,-4.568423 -7.642087,-9.755981 -11.191677,-8.49389 -12.017185,-8.825623 -16.366035,-6.576743 l -3.658608,1.891938 6.259554,5.801971 c 8.746696,8.107295 19.554216,15.369425 20.593996,13.838155 0.45853,-0.67528 0.82445,-3.01499 0.81318,-5.19934 z M 57.598166,39.689183 60.747751,37.211718 60.021816,25.347232 C 59.265961,12.993768 58.156237,10.517716 53.336217,10.43012 c -1.793742,-0.03261 -1.985787,1.427123 -1.985787,15.093728 0,18.052915 0.336259,18.815303 6.247736,14.165335 z"
       id="path3003"
       inkscape:connector-curvature="0" />
    <path
       style="fill:#4f4f4f"
       d="M 4.3999192,124.89593 0.91639741,122.20699 1.4220344,64.498612 C 1.9140178,8.3485177 1.4652236,7.2409739 3.7738661,4.3060119 l 2.3518317,-2.9898701 57.6634792,0 c 55.078353,0 57.783573,0.097225 60.342353,2.1685923 l 2.67886,2.1685909 0.32511,55.986642 c 0.17882,30.792653 0.045,57.121433 -0.29739,58.508393 -0.34241,1.38696 -1.73394,3.55715 -3.09227,4.82262 -2.41314,2.2482 -3.7782,2.30088 -59.611489,2.30088 l -56.4676103,0.19262 z m 89.8541288,-9.0957 5.759962,-2.39371 -11.370346,-8.54261 C 82.389972,100.16548 76.687194,95.382763 75.970818,94.235664 74.971631,92.635712 73.736951,92.284965 70.668842,92.729482 66.146864,93.384637 65.244337,92.908444 61.939061,88.123464 56.997405,80.969535 43.407276,53.758935 43.407276,51.018526 c 0,-1.579676 1.021262,-4.170464 2.269472,-5.757306 1.981693,-2.519314 2.267509,-4.589152 2.253977,-16.323021 -0.01893,-16.426795 -0.489918,-18.544168 -4.124872,-18.544168 -6.403038,0 -14.90068,5.435685 -18.094806,11.574697 -3.632283,6.981138 -1.431643,34.820747 3.973928,50.272919 4.792164,13.698712 24.144319,37.933283 34.714921,43.473213 6.479383,3.39578 21.783127,3.43955 29.854152,0.0853 z M 104.62779,103.44241 C 104.60941,99.880625 103.8209,98.873987 96.985703,93.686429 85.893666,85.268163 84.943132,84.873936 80.846035,86.992627 l -3.432244,1.774881 3.138311,3.969471 c 1.726071,2.183207 4.670205,4.963048 6.542519,6.177422 1.872315,1.214379 6.205403,4.224869 9.629085,6.690009 6.817034,4.90839 7.938974,4.60153 7.904084,-2.162 z M 57.598166,39.689183 60.747751,37.211718 60.021816,25.347232 C 59.265961,12.993768 58.156237,10.517716 53.336217,10.43012 c -1.798384,-0.03269 -1.985787,1.463145 -1.985787,15.850219 0,17.409375 0.311627,18.078186 6.247736,13.408844 z"
       id="path3001"
       inkscape:connector-curvature="0"
       sodipodi:nodetypes="ccsscsscssssccccsssssssssssccssscssssscssss" />
    <path
       style="fill:#2a2a2a"
       d="M 4.8608935,124.83837 1.2670641,121.514 1.6756063,64.940746 1.5544335,5.4059013 3.2140662,3.4573329 5.6441928,1.5087655 64.348317,1.3161418 c 55.293993,-0.181434 57.435063,0.079295 59.561943,2.2061803 1.2134,1.2133995 2.51358,3.8942139 2.88931,5.9573664 0.37572,2.0631495 0.53185,28.1783515 0.34698,58.0337795 l -0.33616,54.282602 -3.18378,2.7379 -3.18381,2.73789 -56.547838,0 c -53.9803683,0 -56.4768304,-0.3634 -59.0340685,-2.43349 z m 89.9597515,-9.2672 5.456545,-2.48351 -6.402787,-4.53894 C 83.632219,101.28801 79.751486,98.116289 77.305923,95.007259 c -1.932661,-2.45698 -2.943882,-2.817657 -6.46382,-2.305483 -2.295005,0.333937 -4.707967,0.206377 -5.362142,-0.283471 -3.951632,-2.958992 -22.072685,-37.11502 -22.072685,-41.604386 0,-1.692212 1.14892,-4.224045 2.553157,-5.626299 2.444812,-2.44136 2.53858,-3.23368 2.209657,-18.67157 l -0.343498,-16.122019 -3.380841,0 c -7.022154,0 -15.408061,5.180991 -18.734704,11.574697 -3.632283,6.981138 -1.431643,34.820747 3.973928,50.272919 4.792164,13.698712 24.144319,37.933283 34.714921,43.473213 6.564327,3.44028 22.713948,3.36402 30.420749,-0.14369 z m 9.807145,-12.12876 c -0.0184,-3.561785 -0.80689,-4.568423 -7.642087,-9.755981 -11.102836,-8.426462 -12.039945,-8.81385 -16.16319,-6.681637 l -3.455767,1.787044 2.432731,3.416458 c 1.338004,1.87905 4.292721,4.679218 6.566043,6.222593 2.27332,1.543379 6.908538,4.839273 10.300482,7.324203 6.799968,4.98167 7.997618,4.63379 7.961788,-2.31268 z M 57.598166,39.689183 60.172478,37.115839 60.021816,25.347232 C 59.861268,12.8064 58.174476,10.513877 53.052534,10.428285 c -2.17927,-0.03641 -2.255819,0.593564 -1.925975,15.850217 0.374693,17.330941 0.680962,17.965602 6.471607,13.410681 z"
       id="path2999"
       inkscape:connector-curvature="0"
       sodipodi:nodetypes="ccccccsssscccscscssssssscsssssssscssssscssss" />
    <path
       style="fill:#f2f2f2"
       d="M 5.4755489,124.30802 2.5117053,121.53594 2.2621859,63.318658 2.5646759,6.4204174 5.8188165,3.4847635 C 8.2623484,1.2803831 9.9226276,2.0658382 64.327807,1.6996573 l 56.597153,0.5752734 2.85079,2.051018 c 2.92449,2.1040422 2.46727,2.2545747 2.46727,60.2425143 l -0.76703,57.616227 -4.14042,2.92711 c -3.0473,2.15432 -2.13591,1.01251 -57.17599,1.20127 L 8.439393,125.92956 z m 90.3245521,-8.42806 4.518429,-2.36648 -3.974776,-3.31349 C 91.01368,105.75668 78.796173,96.753033 77.101703,94.333841 c -1.321321,-1.88645 -3.77665,-2.578274 -6.41,-2.244615 -2.429577,0.307839 -4.557567,-0.139862 -5.211742,-0.62971 -3.951632,-2.958992 -21.113896,-35.580958 -21.113896,-40.070324 0,-1.789586 1.14228,-4.225815 2.526754,-6.178776 L 49.227817,41.91663 49.003027,27.114121 48.011207,11.161062 45.510476,9.8516585 C 39.374993,6.6390671 28.442578,14.846122 25.135774,21.201697 c -3.632283,6.981138 -2.006917,35.39602 3.398654,50.848192 4.792164,13.698712 24.719592,39.467351 35.290194,45.007281 6.636479,3.47812 24.261035,2.86313 31.975479,-1.17721 z m 8.961189,-7.42406 c 0.37883,-0.98719 0.67173,-3.41269 0.65092,-5.38999 -0.0326,-3.0886 -2.26215,-5.560548 -8.810022,-10.530028 -11.083799,-8.412015 -11.661039,-8.427952 -15.738367,-6.319483 -1.877952,0.971127 -4.948519,2.546549 -4.948519,3.032197 0,1.850155 24.206798,21.193984 26.460718,21.193984 0.40574,0 2.00645,-0.99947 2.38527,-1.98668 z M 57.21465,40.647972 60.939509,37.403476 60.405332,24.196685 C 59.888855,11.427497 58.20306,9.7373849 52.600664,9.6630889 49.887741,9.6271189 50.582366,10.39482 50.608073,19.755607 c 0.0173,6.299412 -0.226972,12.681219 0.160282,16.078065 0.835141,7.325554 1.759025,9.373086 6.446295,4.8143 z"
       id="path2997"
       inkscape:connector-curvature="0"
       sodipodi:nodetypes="ccccsscsscssccscsssssscccsssssccsssscscsssss" />
  </g>
</svg>
